<svg xmlns="http://www.w3.org/2000/svg" viewBox="0 0 512 512"><defs><style>.cls-1{fill:#cf4849;}.cls-2{fill:#d16d73;}.cls-3{fill:#d7cb41;}.cls-4{fill:#f6ea49;}.cls-5{fill:#c5b73f;}.cls-6{fill:#fff;}.cls-7{fill:#72aadd;}.cls-8{fill:#74a9cf;}.cls-9{fill:#7cb3e3;}.cls-10{fill:#e1aa54;}.cls-11{fill:#6798d1;}.cls-12{fill:#db9932;}.cls-13{fill:#c88a34;}.cls-14{fill:#a37133;}.cls-15{fill:#b88135;}.cls-16{fill:#cd458f;}.cls-17{fill:none;stroke:#cd458f;stroke-linecap:round;stroke-miterlimit:10;stroke-width:10px;}.cls-18{fill:#5c88a7;}.cls-19{fill:#a97534;}.cls-20{fill:#c28534;}.cls-21{fill:#484386;}.cls-22{fill:#524995;}.cls-23{fill:#eec892;}.cls-24{fill:#2f3c71;}</style></defs><title>Gifts</title><g id="BULINE"><circle class="cls-1" cx="256" cy="256" r="256"/></g><g id="Icons"><path class="cls-2" d="M497.5,170.88a242,242,0,0,1-83.84,164.47l-1.8,1.54q-5.81,4.89-11.93,9.41-7.12,5.29-14.64,10.05a242.27,242.27,0,0,1-254.19,3.06c-1.18-.7-2.35-1.42-3.52-2.14a244.31,244.31,0,0,1-52.16-43.72A241.57,241.57,0,0,1,14,172.25a256,256,0,0,1,61.4-97.71V67.12A17.93,17.93,0,0,1,93.35,49.19h11.74A254.84,254.84,0,0,1,256,0C367.54,0,462.42,71.34,497.5,170.88Z"/><path class="cls-3" d="M411.86,67.12V456.06c0,1.05,0,2.08-.1,3.11a47.57,47.57,0,0,1-47.49,44.49H75.42V67.12A17.93,17.93,0,0,1,93.35,49.19H393.93A17.93,17.93,0,0,1,411.86,67.12Z"/><path class="cls-4" d="M393.93,49.19a17.93,17.93,0,0,1,17.93,17.93V456.06a47.57,47.57,0,0,1-47.59,47.6H127.58V49.19Z"/><path class="cls-5" d="M328,489.72c5.8,5.8,13.11,11.75,21.27,13.94H55.2a47.6,47.6,0,0,1,0-95.2H349.27a46.82,46.82,0,0,0-25.21,17.59,50.66,50.66,0,0,0-10,30A47.45,47.45,0,0,0,328,489.72Z"/><path class="cls-3" d="M328,489.72c5.8,5.8,13.11,11.75,21.27,13.94H175.18a47.6,47.6,0,1,1,0-95.2H349.27a46.82,46.82,0,0,0-25.21,17.59,50.66,50.66,0,0,0-10,30A47.45,47.45,0,0,0,328,489.72Z"/><circle class="cls-6" cx="244.08" cy="167.67" r="95.2"/><path class="cls-7" d="M311.94,144.65V247a6.83,6.83,0,0,1-6.82,6.82H183a6.83,6.83,0,0,1-6.82-6.82V144.65Z"/><path class="cls-8" d="M320.58,113.62v26.15a4.89,4.89,0,0,1-4.9,4.88H172.45a4.87,4.87,0,0,1-4.88-4.88V113.62a4.87,4.87,0,0,1,4.88-4.88H315.68A4.89,4.89,0,0,1,320.58,113.62Z"/><path class="cls-9" d="M320.58,113.62v26.15a4.89,4.89,0,0,1-4.9,4.88H214.29a4.87,4.87,0,0,1-4.88-4.88V113.62a4.87,4.87,0,0,1,4.88-4.88H315.68A4.89,4.89,0,0,1,320.58,113.62Z"/><rect class="cls-10" x="225.77" y="108.74" width="39.22" height="35.92"/><path class="cls-11" d="M311.94,154.54v-9.89H176.21V247a6.83,6.83,0,0,0,6.82,6.82h41.84a6.82,6.82,0,0,1-6.82-6.82V154.54Z"/><rect class="cls-12" x="225.77" y="144.65" width="39.22" height="109.13"/><rect class="cls-13" x="225.77" y="144.65" width="39.22" height="9.89"/><path class="cls-14" d="M245.38,108.74H180.19c.71-18.46,9.45-27.4,14.62-31.11a10.7,10.7,0,0,1,7.29-1.92,67.29,67.29,0,0,1,10.49,1.9C240.93,85.18,245.38,108.74,245.38,108.74Z"/><path class="cls-15" d="M245.38,108.74H197.92c.71-18.46,9.45-27.4,14.62-31.11l.05,0C240.93,85.18,245.38,108.74,245.38,108.74Z"/><path class="cls-14" d="M245.38,108.74h65.19c-.71-18.46-9.46-27.4-14.63-31.11a10.66,10.66,0,0,0-7.28-1.92,67.07,67.07,0,0,0-10.49,1.9C249.83,85.18,245.38,108.74,245.38,108.74Z"/><path class="cls-15" d="M245.38,108.74h47.45c-.7-18.46-9.45-27.4-14.62-31.11l0,0C249.83,85.18,245.38,108.74,245.38,108.74Z"/><path class="cls-12" d="M257.37,108.74a12,12,0,0,0-24,0Z"/><rect class="cls-16" x="131.06" y="289.36" width="35.64" height="35.64" rx="6.67"/><rect class="cls-16" x="131.06" y="353.47" width="35.64" height="35.64" rx="6.67"/><line class="cls-17" x1="204.08" y1="307.18" x2="277.97" y2="307.18"/><line class="cls-17" x1="307.32" y1="307.18" x2="349.48" y2="307.18"/><line class="cls-17" x1="204.69" y1="334.13" x2="246.85" y2="334.13"/><line class="cls-17" x1="204.08" y1="371.3" x2="307.32" y2="371.3"/><line class="cls-17" x1="328.08" y1="370.54" x2="350.47" y2="370.54"/><rect class="cls-18" x="409.26" y="300.89" width="34.91" height="144.39" transform="translate(-138.83 411.01) rotate(-45)"/><rect class="cls-11" x="424.16" y="294.72" width="17.45" height="144.39" transform="translate(-132.66 413.57) rotate(-45)"/><path class="cls-19" d="M490.11,411.8,501.29,423a17.47,17.47,0,0,1,0,24.68h0a17.43,17.43,0,0,1-24.67,0l-11.18-11.18Z"/><path class="cls-20" d="M490.11,411.8,501.29,423a17.44,17.44,0,0,1,4.51,16.85,17.43,17.43,0,0,1-16.86-4.51l-11.18-11.18Z"/><rect class="cls-21" x="455.29" y="412" width="34.91" height="14.22" transform="translate(-157.9 457.03) rotate(-45)"/><rect class="cls-22" x="470.18" y="405.83" width="17.46" height="14.22" transform="translate(-151.73 459.59) rotate(-45)"/><path class="cls-23" d="M388,309.7l-24.69,24.68-5.19-21.76-1.74-7.29a2.14,2.14,0,0,1,2.56-2.57l7.29,1.74Z"/><path class="cls-24" d="M366.24,304.5l-8.11,8.12-1.74-7.29a2.14,2.14,0,0,1,2.56-2.57Z"/></g></svg>